<svg xmlns="http://www.w3.org/2000/svg" viewBox="0 0 512 512" width="128px" xmlns:bx="https://boxy-svg.com" height="128px">
  <g transform="matrix(1.066667, 0, 0, 1.055591, -81.04007, -152.342438)" style="transform-origin: -1137.9px -2550.54px;">
    <path class="st1" d="M 286.106 289.464 C 356.418 218.414 356.418 218.414 356.418 218.414 C 356.382 289.183 356.499 338.621 356.368 407.767 C 286.106 422.091 286.106 422.025 286.106 422.091 L 286.106 289.464 Z" style="stroke-width: 1; fill: rgb(254, 254, 254);"/>
    <path class="st1" d="M 140.793 355.777 C 206.418 303.674 141.418 355.327 206.418 303.674 L 206.418 422.091 L 140.793 407.881 C 140.793 356.229 140.793 407.429 140.793 355.777 Z" style="stroke-width: 1; fill: rgb(254, 254, 254);"/>
    <path class="st1" d="M 80 275 L 5 275 L 4.856 242.097 L 79.856 242.097" style="stroke-width: 1; fill: rgb(254, 254, 254);"/>
    <path class="st1" d="M 482.981 275.254 C 468.918 275.254 407.981 275.254 407.981 275.254 L 407.981 237.36 L 482.981 237.36" style="stroke-width: 1; fill: rgb(254, 254, 254);"/>
    <path class="st1" d="M 266.082 489.637 C 280.145 489.637 302.957 489.637 312.957 489.637 C 312.957 489.637 312.957 492.3 312.957 484.9 C 312.957 402.6 372.697 328.601 458.269 328.59 C 461.908 328.59 460.613 328.59 467.644 328.59 C 467.644 333.59 467.644 285.96 467.644 285.96 C 455.642 285.96 468.502 285.96 458.269 285.96 C 359.974 285.965 266.082 396.731 266.082 484.9 C 266.082 487.625 266.082 489.637 266.082 489.637 Z" style="stroke-width: 1; fill: rgb(254, 254, 254);" transform="matrix(-1, 0, 0, -1, 735.000033, 769.62746944)"/>
    <path class="st1" d="M 18.918 237.36 C 22.539 237.36 55.793 237.36 65.793 237.36 C 65.793 237.36 65.793 240.103 65.793 232.624 C 65.793 150.324 134.909 71.587 220.481 71.576 C 224.12 71.576 218.137 71.576 225.168 71.576 C 225.168 76.576 225.168 24.21 225.168 24.21 C 225.168 24.21 225.481 24.21 220.481 24.21 C 122.186 24.2 18.918 144.455 18.918 232.624 C 18.918 235.349 18.918 237.36 18.918 237.36 Z" style="stroke-width: 1; paint-order: fill; fill: rgb(254, 254, 254);"/>
    <path class="st1" d="M 285.389 65.329 L 210.389 65.329 L 210.389 32.172 L 285.389 32.172" style="stroke-width: 1; fill: rgb(254, 254, 254); transform-box: fill-box; transform-origin: 50% 50%;" transform="matrix(0, 1.010493, -0.989616, 0, -1.627033, -0.857921)"/>
    <path class="st1" d="M 395.264 175.405 C 394.081 175.522 392.988 175.941 391.939 176.466 C 391.357 176.757 390.555 176.651 389.988 176.934 C 388.602 177.627 386.294 176.908 384.837 177.637 C 383.659 178.226 381.489 177.707 380.622 178.573 C 380.499 178.697 379.867 178.639 379.685 178.729 C 378.73 179.207 376.697 179.064 375.939 179.822 C 375.689 180.072 374.859 179.972 374.534 180.134 C 373.366 180.718 370.987 181.028 370.163 181.851 C 369.714 182.301 368.564 182.124 368.134 182.554 C 367.715 182.973 366.751 182.922 366.339 183.334 C 365.325 184.348 363.191 184.375 362.202 185.364 C 361.899 185.667 361.115 185.514 360.797 185.832 C 360.25 186.38 358.898 186.405 358.377 186.925 C 357.496 187.807 355.854 188.278 355.021 189.11 C 354.631 189.5 353.773 189.422 353.382 189.813 C 353.03 190.164 352.405 190.495 351.991 190.678 C 351.941 190.636 351.891 190.593 351.841 190.551 C 330.564 172.574 311.903 150.619 297.502 127.202 C 297.895 122.319 306.001 120.616 309.154 117.463 C 310.344 116.273 311.03 113.447 312.265 112.213 C 312.621 111.856 312.102 110.625 312.459 110.269 C 314.907 107.821 314.426 102.857 317.125 100.158 C 318.313 98.97 317.965 96.207 319.07 95.102 C 320.01 94.163 318.325 90.598 319.264 89.658 C 319.96 88.963 319.6 87.184 320.236 86.547 C 320.426 86.358 320.747 86.255 321.03 86.137 C 334.309 123.961 360.716 156.814 395.264 175.405 Z" style="stroke-width: 1; fill: rgb(254, 254, 254);" transform="matrix(-1, 0, 0, -1, 736.52198866, 261.10999935)"/>
    <path class="st1" d="M 267.604 28.486 C 281.583 28.486 314.479 28.486 314.479 28.486 C 314.479 28.486 314.479 39.103 314.479 66.38 C 314.479 66.38 291.041 125.249 286.354 137.43 C 267.027 106.003 267.604 63.829 267.604 33.223 C 267.604 30.498 267.604 28.486 267.604 28.486 Z" style="stroke-width: 1; fill: rgb(254, 254, 254);" transform="matrix(-1, 0, 0, -1, 736.52198866, 261.10999935)"/>
    <path class="st1" d="M 317.332 23.923 C 332.332 28.923 359.481 33.394 382.957 33.397 C 386.596 33.397 387.644 33.396 387.644 33.397 C 387.644 33.398 387.644 80.763 387.644 80.763 C 375.642 80.763 393.19 80.763 382.957 80.763 C 344.267 80.761 302.854 65.462 270.457 38.133 C 320.457 23.133 267.332 38.923 317.332 23.923 Z" style="stroke-width: 1; fill: rgb(254, 254, 254);" transform="matrix(-1, 0, 0, -1, 654.999999, 104.9730052)"/>
    <path class="st0" d="M 405.235 155.568 C 404.621 156.467 279.701 280.033 279.701 280.033 L 234.787 259.876 L 94.297 374.276 L 235.05 198.327 C 235.05 198.327 264.812 211.421 279.958 220.033 C 330.986 163.886 356.037 136.469 375.406 115.44 C 375.811 115 375.469 114.678 340.83 86.079 L 475.726 40.869 C 470.662 55.847 435.268 147.869 420.085 190.632 C 405.235 155.568 405.849 154.669 405.235 155.568 Z" style="stroke-width: 1; fill: rgb(0, 176, 229);" transform="matrix(0.999991, -0.004277, 0.004277, 0.999991, -0.89684372, 1.16573836)"/>
    <path class="st1" d="M 18.918 279.99 C 22.539 279.99 55.793 279.99 65.793 279.99 C 65.793 279.99 65.793 277.248 65.793 284.727 C 65.793 367.027 134.909 441.027 220.481 441.038 C 224.12 441.038 225.168 441.038 225.168 441.038 L 225.168 483.668 C 213.529 483.668 230.714 483.668 220.481 483.668 C 122.186 483.663 18.918 372.896 18.918 284.727 C 18.918 282.002 18.918 279.99 18.918 279.99 Z" style="stroke-width: 1; fill: rgb(254, 254, 254);"/>
    <path class="st1" d="M 211.106 299.276 C 235.005 275.257 235.472 275.036 235.472 275.036 L 281.189 289.916 C 281.189 289.916 281.55 351.965 281.418 422.091 C 215.135 422.091 211.108 422.081 211.106 422.091 L 211.106 299.276 Z" style="stroke-width: 1; fill: rgb(254, 254, 254);"/>
    <path class="st1" d="M 280.605 477.68 L 214.292 477.68 L 214.292 444.868 L 280.605 444.868" style="stroke-width: 1; fill: rgb(254, 254, 254); transform-origin: 247.5px 460.036px;" transform="matrix(0, 1, -1, 0, 0, -0.000015)"/>
  </g>
</svg>